0.11m3min_grf.mot
version=1
nRows=20
nColumns 19
inDegrees=yes
endheader
time	1_ground_force_vx	1_ground_force_vy	1_ground_force_vz	1_ground_force_px	1_ground_force_py	1_ground_force_pz	1_ground_torque_x	1_ground_torque_y	1_ground_torque_z	2_ground_force_vx	2_ground_force_vy	2_ground_force_vz	2_ground_force_px	2_ground_force_py	2_ground_force_pz	2_ground_torque_x	2_ground_torque_y	2_ground_torque_z
            1.253500	            0.181213	            5.590237	           -0.435052	           -0.233013	            0.005581	           -0.255695	            0.466527	           -0.351010	           -0.013841	            0.416551	            1.115450	           -2.530355	           -0.232311	            0.006130	           -0.833667	           -0.225719	            0.047458	           -0.282489
            1.254000	            0.319150	            5.229143	           -0.299372	           -0.233013	            0.005581	           -0.255695	            0.536285	           -0.397629	            0.104451	            0.417174	            0.931637	           -2.624868	           -0.232311	            0.006130	           -0.833667	           -0.225822	            0.085000	           -0.206953
            1.254500	            0.502764	            5.769385	           -0.159940	           -0.233013	            0.005581	           -0.255695	            0.417448	           -0.342102	            0.112784	            0.511559	            0.747659	           -2.578637	           -0.232311	            0.006130	           -0.833667	           -0.150433	            0.009851	           -0.263805
            1.255000	            0.503435	            3.966139	           -0.030102	           -0.233013	            0.005581	           -0.255695	            0.525110	           -0.175292	            0.019306	            0.275378	            1.298756	           -2.435781	           -0.232311	            0.006130	           -0.833667	           -0.150364	           -0.009054	           -0.263873
            1.255500	            0.227904	            4.687738	           -0.163896	           -0.233013	            0.005581	           -0.255695	            0.474365	            0.018275	            0.102498	            0.556415	            1.300274	           -2.576685	           -0.232311	            0.006130	           -0.833667	           -0.150509	            0.028824	           -0.282588
            1.256000	            0.365286	            4.868227	           -0.209320	           -0.233013	            0.005581	           -0.255695	            0.438595	           -0.055456	            0.070532	            0.462051	            1.484084	           -2.575988	           -0.232311	            0.006130	           -0.833667	           -0.263195	            0.019031	           -0.301424
            1.256500	            0.319443	            4.868218	           -0.209206	           -0.233013	            0.005581	           -0.255695	            0.419756	           -0.230944	            0.030276	            0.604697	            0.931309	           -2.343379	           -0.232311	            0.006130	           -0.833667	           -0.150450	            0.019170	           -0.226071
            1.257000	            0.227707	            5.769332	           -0.159258	           -0.233013	            0.005581	           -0.255695	            0.510954	           -0.350890	           -0.030801	            0.463401	            1.115620	           -2.530374	           -0.232311	            0.006130	           -0.833667	           -0.244546	            0.056910	           -0.301297
            1.257500	            0.227901	            5.949205	           -0.066773	           -0.233013	            0.005581	           -0.255695	            0.488213	           -0.406432	           -0.012191	            0.366981	            1.852377	           -2.668491	           -0.232311	            0.006130	           -0.833667	           -0.207062	            0.085269	           -0.263511
            1.258000	            0.411225	            5.588905	           -0.114630	           -0.233013	            0.005581	           -0.255695	            0.547047	           -0.323711	            0.127436	            0.462072	            1.483916	           -2.529060	           -0.232311	            0.006130	           -0.833667	           -0.338507	            0.066024	           -0.301223
            1.258500	            0.182531	            5.227543	            0.067817	           -0.233013	            0.005581	           -0.255695	            0.407620	           -0.129081	           -0.031529	            0.646977	            2.219847	           -2.151087	           -0.232311	            0.006130	           -0.833667	           -0.432399	            0.047048	           -0.376652
            1.259000	            0.365056	            6.130087	           -0.203909	           -0.233013	            0.005581	           -0.255695	            0.475004	           -0.073372	           -0.061266	            1.658504	            7.563033	           -1.897830	           -0.232311	            0.006130	           -0.833667	           -1.128034	            0.177683	           -0.602086
            1.259500	            0.089953	            4.508232	           -0.347751	           -0.233013	            0.005581	           -0.255695	            0.463589	           -0.129772	            0.114830	            2.460404	           19.163573	           -0.777448	           -0.277369	            0.005434	           -0.684098	            0.008510	            0.066279	           -0.002689
            1.260000	            0.457427	            4.867458	           -0.026124	           -0.233013	            0.005581	           -0.255695	            0.468421	           -0.314298	            0.092056	            3.543033	           30.768140	           -0.501891	           -0.269506	            0.005503	           -0.695409	            0.023918	            0.207703	           -0.003388
            1.260500	            0.136248	            5.768921	           -0.067318	           -0.233013	            0.005581	           -0.255695	            0.544687	           -0.434274	            0.002445	            5.506645	           31.702179	           -2.235782	           -0.286674	            0.005450	           -0.697983	            0.068736	            0.395721	           -0.027908
            1.261000	            0.273663	            5.769145	           -0.113516	           -0.233013	            0.005581	           -0.255695	            0.509386	           -0.397729	            0.121342	            7.896660	           31.347866	           -3.739812	           -0.301903	            0.005314	           -0.675380	            0.050628	            0.200980	           -0.023977
            1.261500	            0.228455	            5.407621	            0.114332	           -0.233013	            0.005581	           -0.255695	            0.612340	           -0.203450	            0.082381	            8.644729	           44.971190	           -1.861332	           -0.278151	            0.005410	           -0.678076	           -0.034839	           -0.181238	            0.007501
            1.262000	            0.365385	            4.327430	           -0.211639	           -0.233013	            0.005581	           -0.255695	            0.476448	           -0.101585	            0.051462	            7.056994	           69.994886	            2.452195	           -0.268518	            0.005463	           -0.683357	           -0.020655	           -0.204872	           -0.007177
            1.262500	            0.318937	            5.770136	           -0.342909	           -0.233013	            0.005581	           -0.255695	            0.425104	           -0.055485	            0.068579	            4.140224	           99.801367	            6.877220	           -0.269729	            0.005484	           -0.690362	            0.005473	            0.131939	            0.009092
            1.263000	            0.640005	            3.607404	           -0.444693	           -0.233013	            0.005581	           -0.255695	            0.411867	           -0.129613	            0.157246	            2.633198	          128.148439	            8.856129	           -0.271162	            0.005486	           -0.692566	            0.009374	            0.456209	            0.031528
